Coordinates
version=1
nRows=19
nColumns=36
inDegrees=yes

Units are S.I. units (second, meters, Newtons, ...)
If the header above contains a line with 'inDegrees', this indicates whether rotational values are in degrees (yes) or radians (no).

endheader
time	pelvis_tilt	pelvis_list	pelvis_rotation	pelvis_tx	pelvis_ty	pelvis_tz	hip_flexion_r	hip_adduction_r	hip_rotation_r	knee_angle_r	knee_angle_r_beta	ankle_angle_r	subtalar_angle_r	mtp_angle_r	hip_flexion_l	hip_adduction_l	hip_rotation_l	knee_angle_l	knee_angle_l_beta	ankle_angle_l	subtalar_angle_l	mtp_angle_l	lumbar_extension	lumbar_bending	lumbar_rotation	arm_flex_r	arm_add_r	arm_rot_r	elbow_flex_r	pro_sup_r	arm_flex_l	arm_add_l	arm_rot_l	elbow_flex_l	pro_sup_l
      0.00000000	     -9.44179878	     -1.51285044	     -9.92276985	      1.57137859	      0.89628759	      0.13834337	      7.48191647	      8.73116827	      6.54204970	      1.35663236	      0.02367770	     -1.84606203	    -20.31339382	     -6.37420049	     12.77510662	     -8.06603971	      3.79559716	     18.01618144	      0.31444168	     -3.13074125	    -25.37328908	     -6.37420049	      4.98058062	      4.40604038	     -4.01384667	     30.60904288	     -0.58053243	     54.39978107	    119.17414700	     78.34877253	     37.14406227	      8.60165111	     64.10804659	    111.88273400	     90.84046760
      0.01666670	     -8.62664492	     -2.37475884	    -10.14994144	      1.57182016	      0.89510568	      0.13700145	      6.17724026	      9.79779113	      6.10061829	      1.00745760	      0.01758345	      0.07650982	    -18.93378288	     -6.66961395	     11.08367334	     -9.13975568	      2.51282745	     16.33699462	      0.28513435	      0.45458700	    -23.14394964	     -6.66961395	      2.69813776	      6.36102345	     -2.87567968	     34.50314370	     -3.34260017	     62.76671876	    124.54231591	     94.72829125	     39.26029732	      7.76929157	     64.30758794	    117.28527919	    106.46400059
      0.03333330	     -7.10589332	     -3.17998461	    -10.53116324	      1.57048311	      0.89683602	      0.13681592	      4.32311972	     10.76779386	      7.22289748	      1.19831597	      0.02091456	     -0.55113595	    -19.22340158	     -6.86218156	      8.72065842	    -10.22706629	      1.33231281	     15.08753648	      0.26332719	      1.44067608	    -22.04202623	     -6.86218156	      0.31027500	      6.99125015	     -2.19816431	     35.26377079	     -2.39143192	     62.01292361	    126.08302629	    101.48043793	     41.22780183	      7.68998783	     64.87381636	    118.17970551	    109.76662772
      0.05000000	     -6.28975733	     -3.56508256	    -10.41769388	      1.57349249	      0.89767934	      0.13385852	      3.28264156	     11.18854937	      7.14366725	      1.20826318	      0.02108817	     -0.20194987	    -18.90761856	     -6.88053224	      7.15596214	    -10.66752835	      1.11331130	     13.89839414	      0.24257274	      2.63676902	    -21.56006575	     -6.88053224	     -0.71123884	      7.35605970	     -2.68199986	     35.29672388	     -1.72976592	     61.97851578	    125.53504753	    101.83722426	     42.11252989	      7.65651139	     64.48350387	    118.68508457	    109.71434428
      0.06666670	     -5.82946728	     -3.75133603	    -10.46347298	      1.57267544	      0.89803758	      0.13361249	      2.72507248	     11.46139348	      6.93707515	      1.31324877	      0.02292051	      0.22181839	    -18.62315355	     -7.16097458	      6.23447308	    -10.96039329	      0.66480358	     13.46271974	      0.23496879	      3.31324682	    -21.12997059	     -7.16097458	     -1.33695979	      7.65011630	     -2.95919322	     35.16562986	     -1.03539369	     62.79949779	    125.07420710	    103.13526886	     42.62605091	      7.72822529	     64.26632772	    119.25675295	    109.79947506
      0.08333330	     -5.56286129	     -3.81545685	    -10.47458991	      1.57217536	      0.89904076	      0.13360488	      2.37505012	     11.57303594	      6.71740951	      1.35173219	      0.02359218	      0.28709700	    -18.49210009	     -7.27163197	      5.68379840	    -11.08740353	      0.37505386	     13.33250618	      0.23269613	      3.41725936	    -21.10014361	     -7.27163197	     -1.78777505	      7.89705165	     -3.17778838	     34.93083493	     -0.53464730	     63.49817681	    124.60607742	    103.26334686	     42.85817570	      7.37671657	     64.33751772	    119.70837058	    109.23500834
      0.10000000	     -5.37027125	     -3.79840367	    -10.55954279	      1.57182405	      0.90183144	      0.13380504	      2.10437883	     11.58567840	      6.68342484	      1.36336013	      0.02379512	      0.20230594	    -18.51438574	     -7.36412649	      5.31216730	    -11.11103110	     -0.04681285	     13.45065879	      0.23475828	      3.34778127	    -20.85663577	     -7.36412649	     -2.19582852	      8.02960715	     -3.20328061	     34.46703034	     -0.51096965	     64.06622620	    124.17160764	    103.09474782	     43.03986154	      6.82210461	     64.66309013	    120.06617034	    108.62790010
      0.11666670	     -5.23494694	     -3.78296794	    -10.51151101	      1.57161471	      0.90226372	      0.13388446	      1.86962862	     11.60067066	      6.60261041	      1.29712784	      0.02263915	      0.08460675	    -18.53107417	     -7.40938111	      5.05356856	    -11.13144408	     -0.33277178	     13.48573790	      0.23537053	      3.07776852	    -20.74290058	     -7.40938111	     -2.52108412	      8.13515723	     -3.26810330	     34.16825193	     -0.46975329	     64.36020936	    123.97836396	    102.40932750	     43.22619645	      6.19520472	     65.09262925	    120.67826616	    108.09361346
      0.13333330	     -5.15024542	     -3.73397113	    -10.46033007	      1.57134080	      0.90216230	      0.13365066	      1.71490271	     11.58929080	      6.60559842	      1.24324880	      0.02169878	     -0.01293361	    -18.58134796	     -7.46022868	      5.03233509	    -11.12571266	     -0.62912086	     13.73860163	      0.23978383	      2.80719090	    -20.65557534	     -7.46022868	     -2.80553019	      8.20877591	     -3.28373835	     34.02678720	     -0.42146012	     64.55533586	    123.87061422	    101.67620014	     43.46798082	      5.82650381	     65.45029991	    121.32342439	    107.72902274
      0.15000000	     -4.90191834	     -3.74143140	    -10.39378331	      1.57111375	      0.90267487	      0.13353850	      1.34811947	     11.58274022	      6.53627503	      1.13234430	      0.01976314	      0.00272168	    -18.39129255	     -7.46947374	      4.75001552	    -11.12257765	     -0.82658756	     13.82720530	      0.24133026	      2.48355171	    -20.68142685	     -7.46947374	     -3.24737617	      8.30932260	     -3.31157513	     34.11255061	     -0.43887027	     65.06476348	    123.62649958	     96.28436174	     43.89001772	      5.65766946	     66.12946607	    121.36481850	    101.22933304
      0.16666670	     -4.95472820	     -3.68152540	    -10.38940904	      1.57078893	      0.90232507	      0.13343721	      1.35401584	     11.57289829	      6.64021019	      1.11618357	      0.01948108	     -0.10234807	    -18.49628564	     -7.48585195	      4.86278639	    -11.12483859	     -1.14549627	     13.98472787	      0.24407955	      2.33647664	    -20.46608792	     -7.48585195	     -3.29801133	      8.34410766	     -3.11998638	     33.69858534	     -0.29633024	     64.49829620	    123.71793931	    100.93879866	     43.97996141	      5.86221893	     66.02017954	    121.47764152	    106.78073357
      0.18333330	     -4.84485265	     -3.65998729	    -10.32829436	      1.57058459	      0.90262605	      0.13337803	      1.15974594	     11.56350711	      6.61087641	      1.04741679	      0.01828087	     -0.13515926	    -18.43906273	     -7.48718624	      4.71243364	    -11.09950186	     -1.34315030	     13.93098477	      0.24314155	      2.12342072	    -20.36681695	     -7.48718624	     -3.50829410	      8.37850468	     -3.05763508	     33.57803364	     -0.13651696	     64.32653015	    123.73090753	    100.92031844	     44.10607449	      5.99411527	     66.04874934	    121.54253584	    106.13578697
      0.20000000	     -4.74998921	     -3.64254719	    -10.34638247	      1.56998494	      0.90240145	      0.13311392	      1.00559422	     11.54975567	      6.70504145	      1.00400253	      0.01752315	     -0.22623166	    -18.61734954	     -7.49285317	      4.55177687	    -11.07034877	     -1.56481241	     13.85484799	      0.24181271	      2.04055813	    -20.21881262	     -7.49285317	     -3.71037164	      8.37795892	     -2.84287825	     33.43282043	     -0.07126186	     64.01495481	    123.80518816	    100.53204363	     44.01396777	      6.31173306	     66.10417563	    121.36962829	    105.76075391
      0.21666670	     -4.65530081	     -3.64561274	    -10.35177123	      1.56949039	      0.90032724	      0.13263639	      0.87013568	     11.54932475	      6.56626471	      0.99544726	      0.01737383	     -0.16532989	    -18.50058036	     -7.49838439	      4.46834542	    -11.06202792	     -1.65648921	     13.94202096	      0.24333417	      1.90999450	    -20.23863885	     -7.49838439	     -3.84890799	      8.42790873	     -2.80409675	     33.50979376	      0.11773226	     63.69741171	    123.87918018	    100.60179054	     44.04742126	      6.56114276	     65.82748220	    121.36347396	    105.77025150
      0.23333330	     -4.53098153	     -3.65904975	    -10.41309252	      1.56892339	      0.90281746	      0.13266774	      0.71543690	     11.55467615	      6.56777303	      1.00726408	      0.01758007	     -0.10193028	    -18.55444356	     -7.49901109	      4.37036406	    -11.06619197	     -1.84326989	     14.07229035	      0.24560780	      1.92092329	    -20.08400266	     -7.49901109	     -4.13930977	      8.45877873	     -2.74670600	     33.56537792	      0.28624547	     63.95951876	    123.88013036	    100.61415091	     43.98818978	      6.65769774	     65.76519123	    121.25549077	    105.44526291
      0.25000000	     -4.42578054	     -3.68220078	    -10.45077845	      1.56844571	      0.90317640	      0.13245076	      0.58634385	     11.56613915	      6.53218126	      1.04231826	      0.01819189	     -0.06529647	    -18.62288988	     -7.49942422	      4.33555535	    -11.08242119	     -1.93285342	     14.26711529	      0.24900814	      1.91294378	    -20.02468041	     -7.49942422	     -4.41228067	      8.51802292	     -2.74828454	     33.62001925	      0.36152726	     64.36774211	    123.76798443	    100.53511187	     43.94818595	      6.69587248	     65.70229387	    121.22439097	    105.33414752
      0.26666670	     -4.43792857	     -3.67382817	    -10.48985692	      1.56776015	      0.90284796	      0.13199178	      0.60816941	     11.56566681	      6.56146031	      1.08326585	      0.01890656	     -0.18560397	    -18.99648952	     -7.49976482	      4.47855075	    -11.08675879	     -2.01805328	     14.51134644	      0.25327077	      2.00421440	    -19.89881872	     -7.49976482	     -4.50678329	      8.52754770	     -2.72272387	     33.69333854	      0.33439021	     64.66718551	    123.72951679	     99.55218388	     43.99716616	      6.73633259	     65.75644155	    121.10294900	    104.45310624
      0.28333330	     -4.33382705	     -3.69288096	    -10.61803154	      1.56706315	      0.90073616	      0.13141651	      0.53221749	     11.55590455	      6.35325401	      1.18032973	      0.02060064	      0.15713481	    -18.61206929	     -7.49994421	      4.45127872	    -11.10783068	     -2.20594735	     14.76606999	      0.25771654	      2.05633915	    -19.80654198	     -7.49994421	     -4.76932646	      8.58664436	     -2.75301298	     34.07115005	      0.54102891	     64.66871097	    123.81788348	    100.73948846	     44.15861067	      6.76014662	     65.51580089	    121.16158321	    105.03738660
      0.30000000	     -4.27952824	     -3.69944932	    -10.78200832	      1.56635891	      0.90304026	      0.13054594	      0.52289257	     11.53459921	      6.30493330	      1.28118473	      0.02236089	      0.27696440	    -18.65981504	     -7.49997076	      4.46924006	    -11.11900515	     -2.49180814	     15.00599577	      0.26190403	      2.13870396	    -19.58756642	     -7.49997076	     -5.02125816	      8.62460733	     -2.66841491	     34.27129969	      0.44581027	     64.82212358	    123.79982063	    100.57139107	     44.08522123	      6.72767434	     65.54232555	    120.99238091	    104.99556666
